HIERARCHY
ROOT Junyuan_V1:Solving:Hips
{
	OFFSET 0.000000 0.000000 0.000000
	CHANNELS 6 Xposition Yposition Zposition Xrotation Yrotation Zrotation
	JOINT Junyuan_V1:Solving:Spine
	{
		OFFSET 0.000000 -11.384845 2.506330
		CHANNELS 6 Xposition Yposition Zposition Xrotation Yrotation Zrotation
		JOINT Junyuan_V1:Solving:Spine1
		{
			OFFSET 0.000000 -9.451137 1.666492
			CHANNELS 6 Xposition Yposition Zposition Xrotation Yrotation Zrotation
			JOINT Junyuan_V1:Solving:Spine2
			{
				OFFSET 0.000000 -9.560415 0.836431
				CHANNELS 6 Xposition Yposition Zposition Xrotation Yrotation Zrotation
				JOINT Junyuan_V1:Solving:Spine3
				{
					OFFSET 0.000000 -9.596935 0.000000
					CHANNELS 6 Xposition Yposition Zposition Xrotation Yrotation Zrotation
					JOINT Junyuan_V1:Solving:Neck
					{
						OFFSET 0.000000 -12.338917 -1.233889
						CHANNELS 6 Xposition Yposition Zposition Xrotation Yrotation Zrotation
						JOINT Junyuan_V1:Solving:Neck1
						{
							OFFSET 0.000000 -7.011459 -0.613421
							CHANNELS 6 Xposition Yposition Zposition Xrotation Yrotation Zrotation
							JOINT Junyuan_V1:Solving:Head
							{
								OFFSET 0.000000 -6.931316 -1.222178
								CHANNELS 6 Xposition Yposition Zposition Xrotation Yrotation Zrotation
								JOINT Junyuan_V1:Solving:HeadEnd
								{
									OFFSET 0.000000 -9.728081 0.000002
									CHANNELS 6 Xposition Yposition Zposition Xrotation Yrotation Zrotation
									End Site
									{
										OFFSET 0.000000 -9.728081 0.000002
									}
								}
							}
						}
					}
					JOINT Junyuan_V1:Solving:RightShoulder
					{
						OFFSET 0.000000 -8.813511 -5.370063
						CHANNELS 6 Xposition Yposition Zposition Xrotation Yrotation Zrotation
						JOINT Junyuan_V1:Solving:RightArm
						{
							OFFSET -18.258251 -0.000008 0.000000
							CHANNELS 6 Xposition Yposition Zposition Xrotation Yrotation Zrotation
							JOINT Junyuan_V1:Solving:RightForeArm
							{
								OFFSET -29.201408 -0.000008 0.000000
								CHANNELS 6 Xposition Yposition Zposition Xrotation Yrotation Zrotation
								JOINT Junyuan_V1:Solving:RightHand
								{
									OFFSET -21.396938 -0.000008 0.000000
									CHANNELS 6 Xposition Yposition Zposition Xrotation Yrotation Zrotation
									JOINT Junyuan_V1:Solving:RightHandThumb1
									{
										OFFSET -3.324738 2.789463 -2.472237
										CHANNELS 6 Xposition Yposition Zposition Xrotation Yrotation Zrotation
										End Site
										{
											OFFSET -4.877937 0.000000 -4.923042
										}
									}
									JOINT Junyuan_V1:Solving:RightHandMiddle1
									{
										OFFSET -8.865959 -0.000004 0.056833
										CHANNELS 6 Xposition Yposition Zposition Xrotation Yrotation Zrotation
										End Site
										{
											OFFSET -6.930412 -0.000004 0.000000
										}
									}
								}
							}
						}
					}
					JOINT Junyuan_V1:Solving:LeftShoulder
					{
						OFFSET 0.000000 -8.813511 -5.370063
						CHANNELS 6 Xposition Yposition Zposition Xrotation Yrotation Zrotation
						JOINT Junyuan_V1:Solving:LeftArm
						{
							OFFSET 18.258251 -0.000008 0.000000
							CHANNELS 6 Xposition Yposition Zposition Xrotation Yrotation Zrotation
							JOINT Junyuan_V1:Solving:LeftForeArm
							{
								OFFSET 29.201408 -0.000008 0.000000
								CHANNELS 6 Xposition Yposition Zposition Xrotation Yrotation Zrotation
								JOINT Junyuan_V1:Solving:LeftHand
								{
									OFFSET 21.396938 -0.000008 0.000000
									CHANNELS 6 Xposition Yposition Zposition Xrotation Yrotation Zrotation
									JOINT Junyuan_V1:Solving:LeftHandThumb1
									{
										OFFSET 3.324738 2.789463 -2.472237
										CHANNELS 6 Xposition Yposition Zposition Xrotation Yrotation Zrotation
										End Site
										{
											OFFSET 4.877937 0.000000 -4.923042
										}
									}
									JOINT Junyuan_V1:Solving:LeftHandMiddle1
									{
										OFFSET 8.865959 -0.000004 0.056833
										CHANNELS 6 Xposition Yposition Zposition Xrotation Yrotation Zrotation
										End Site
										{
											OFFSET 6.930412 -0.000004 0.000000
										}
									}
								}
							}
						}
					}
				}
			}
		}
	}
	JOINT Junyuan_V1:Solving:RightUpLeg
	{
		OFFSET -10.758358 0.000000 0.000000
		CHANNELS 6 Xposition Yposition Zposition Xrotation Yrotation Zrotation
		JOINT Junyuan_V1:Solving:RightLeg
		{
			OFFSET 0.000000 42.048927 -0.000006
			CHANNELS 6 Xposition Yposition Zposition Xrotation Yrotation Zrotation
			JOINT Junyuan_V1:Solving:RightFoot
			{
				OFFSET 0.000000 37.321884 -0.000006
				CHANNELS 6 Xposition Yposition Zposition Xrotation Yrotation Zrotation
				JOINT Junyuan_V1:Solving:RightForeFoot
				{
					OFFSET 0.000000 3.476204 -0.000000
					CHANNELS 6 Xposition Yposition Zposition Xrotation Yrotation Zrotation
					JOINT Junyuan_V1:Solving:RightToeBase
					{
						OFFSET 0.000000 0.000000 -13.613925
						CHANNELS 6 Xposition Yposition Zposition Xrotation Yrotation Zrotation
						JOINT Junyuan_V1:Solving:RightToeBaseEnd
						{
							OFFSET 0.000000 0.000000 -4.229021
							CHANNELS 6 Xposition Yposition Zposition Xrotation Yrotation Zrotation
							End Site
							{
								OFFSET 0.000000 -4.229019 0.000000
							}
						}
					}
				}
			}
		}
	}
	JOINT Junyuan_V1:Solving:LeftUpLeg
	{
		OFFSET 10.758358 0.000000 0.000000
		CHANNELS 6 Xposition Yposition Zposition Xrotation Yrotation Zrotation
		JOINT Junyuan_V1:Solving:LeftLeg
		{
			OFFSET 0.000000 42.048927 -0.000006
			CHANNELS 6 Xposition Yposition Zposition Xrotation Yrotation Zrotation
			JOINT Junyuan_V1:Solving:LeftFoot
			{
				OFFSET 0.000000 37.321884 -0.000006
				CHANNELS 6 Xposition Yposition Zposition Xrotation Yrotation Zrotation
				JOINT Junyuan_V1:Solving:LeftForeFoot
				{
					OFFSET 0.000000 3.476204 -0.000000
					CHANNELS 6 Xposition Yposition Zposition Xrotation Yrotation Zrotation
					JOINT Junyuan_V1:Solving:LeftToeBase
					{
						OFFSET 0.000000 0.000000 -13.613925
						CHANNELS 6 Xposition Yposition Zposition Xrotation Yrotation Zrotation
						JOINT Junyuan_V1:Solving:LeftToeBaseEnd
						{
							OFFSET 0.000000 0.000000 -4.216879
							CHANNELS 6 Xposition Yposition Zposition Xrotation Yrotation Zrotation
							End Site
							{
								OFFSET 0.000000 -4.216881 0.000000
							}
						}
					}
				}
			}
		}
	}
}
MOTION
Frames: 6
Frame Time: 0.041667
-3.880056 -18.443583 -88.787415 -86.582422 1.333536 -177.799619 -0.000000 -11.384851 2.506331 8.828596 -0.208034 -2.036207 0.000000 -9.451118 1.666487 -1.635458 -0.005817 -0.217307 0.000000 -9.560408 0.836433 -2.743288 -2.275481 -0.150226 0.000001 -9.596921 0.000007 -1.540478 -1.115440 0.916733 -0.000000 -12.338927 -1.233881 -9.119147 -1.780352 2.455903 0.000001 -7.011449 -0.613420 3.207533 -0.380707 0.369284 -0.000000 -6.931298 -1.222170 13.500315 0.023221 0.696102 -0.000000 -9.728065 -0.000001 0.000001 0.000000 -0.000000 -0.000003 -8.813538 -5.370057 -0.000005 15.074070 9.180131 -18.258245 -0.000002 0.000002 -39.967060 -52.150516 -102.914176 -29.201414 0.000009 0.000014 165.402730 -60.896942 167.180805 -21.396935 -0.000019 0.000011 -1.987875 6.929916 16.049297 -3.324755 2.789442 -2.472240 -0.000000 0.000005 -0.000003 -8.865953 -0.000002 0.056858 0.000001 -0.000006 0.000007 -0.000001 -8.813538 -5.370056 -179.999978 30.487734 7.678950 18.258247 -0.000013 0.000004 -70.820620 112.450124 -56.366881 29.201380 -0.000005 -0.000002 397.875349 106.928053 -396.653291 21.396936 0.000010 -0.000006 5.248736 6.912402 -37.353908 3.324714 2.789447 -2.472223 -0.000003 -0.000005 0.000009 8.865934 0.000005 0.056842 -0.000000 0.000005 -0.000002 -10.758358 -0.000007 0.000001 8.069499 5.294011 -4.993025 0.000002 42.048923 -0.000008 -2.360399 0.000001 0.000000 0.000000 37.321880 -0.000001 12.061662 12.566553 6.564084 0.000001 3.476203 0.000004 0.000002 0.000001 0.000001 0.000001 -0.000007 -13.613924 3.565747 -0.000000 0.000001 -0.000002 -0.000000 -4.229022 -0.000001 0.000002 -0.000000 10.758357 -0.000009 -0.000001 7.449792 -9.802034 -0.970716 -0.000002 42.048935 -0.000010 -1.219223 0.000003 0.000000 -0.000002 37.321899 -0.000006 4.565011 -13.545790 -3.843813 0.000001 3.476196 0.000001 -0.000001 0.000004 0.000001 -0.000003 -0.000001 -13.613925 10.571815 -0.000001 -0.000001 -0.000006 0.000000 -4.216870 0.000001 0.000004 -0.000000 
-3.898308 -18.451809 -88.785736 -86.542527 1.594648 -177.834152 0.000000 -11.384874 2.506337 8.740245 -0.212491 -2.004743 -0.000000 -9.451138 1.666496 -1.646293 -0.008119 -0.212963 0.000001 -9.560390 0.836428 -2.650947 -2.316475 -0.146767 0.000000 -9.596941 0.000003 -1.357862 -1.141253 0.914675 0.000000 -12.338907 -1.233891 -9.229937 -1.721366 2.485584 -0.000002 -7.011469 -0.613425 3.214322 -0.339923 0.374471 -0.000002 -6.931336 -1.222181 13.537413 0.027747 0.715103 0.000001 -9.728088 0.000002 -0.000001 0.000000 0.000000 -0.000000 -8.813488 -5.370061 -0.000003 14.849227 9.079456 -18.258249 -0.000048 0.000009 -39.370689 -52.849859 -102.910556 -29.201412 -0.000003 0.000012 156.290342 -60.511637 159.079272 -21.396933 0.000004 -0.000005 -3.168172 10.162793 17.417063 -3.324755 2.789448 -2.472233 -0.000002 0.000014 -0.000003 -8.865985 -0.000003 0.056833 -0.000004 0.000001 -0.000003 0.000000 -8.813511 -5.370063 -179.999978 29.982321 7.543373 18.258245 0.000009 0.000005 -71.463279 111.222520 -55.330177 29.201408 0.000013 -0.000001 412.908759 109.365904 -411.292217 21.396931 0.000004 -0.000019 7.997970 8.246355 -44.409145 3.324717 2.789454 -2.472236 -0.000001 0.000002 0.000003 8.865951 0.000000 0.056813 0.000001 0.000003 -0.000001 -10.758357 -0.000013 0.000009 8.139783 5.512026 -4.985712 0.000002 42.048916 -0.000009 -2.327950 0.000000 0.000000 0.000000 37.321884 -0.000010 12.001708 12.625110 6.567019 -0.000001 3.476196 0.000002 0.000002 0.000001 -0.000002 0.000000 -0.000004 -13.613927 3.571296 -0.000002 -0.000002 -0.000002 0.000000 -4.229021 0.000000 -0.000001 -0.000002 10.758356 -0.000014 0.000006 7.453005 -9.587794 -0.961873 -0.000004 42.048927 -0.000005 -1.180732 0.000000 0.000000 -0.000001 37.321880 -0.000006 4.570753 -13.490465 -3.856065 0.000000 3.476204 -0.000001 0.000002 0.000002 0.000000 0.000003 0.000027 -13.613923 10.545872 -0.000002 0.000000 -0.000002 0.000008 -4.216879 0.000003 0.000003 -0.000000 
-3.915894 -18.465115 -88.784058 -86.498028 1.850571 -177.865817 0.000000 -11.384850 2.506330 8.699347 -0.212035 -1.982303 0.000000 -9.451150 1.666497 -1.645229 -0.009946 -0.207467 -0.000000 -9.560392 0.836432 -2.603121 -2.347843 -0.136130 -0.000000 -9.596969 0.000002 -1.276579 -1.147834 0.929209 -0.000001 -12.338973 -1.233891 -9.278491 -1.691801 2.487433 -0.000000 -7.011442 -0.613421 3.246906 -0.290246 0.381492 -0.000001 -6.931328 -1.222171 13.591859 0.030413 0.726815 0.000003 -9.728050 0.000003 -0.000001 -0.000000 0.000001 -0.000002 -8.813519 -5.370067 -0.000000 14.614197 8.928060 -18.258257 -0.000015 0.000001 -37.946567 -53.057217 -101.976350 -29.201410 0.000009 0.000008 156.364053 -61.086002 159.039015 -21.396910 -0.000022 -0.000004 -3.913867 9.699766 22.100798 -3.324756 2.789446 -2.472236 0.000001 0.000009 -0.000003 -8.865981 0.000003 0.056816 0.000000 -0.000001 0.000001 -0.000002 -8.813541 -5.370066 -179.999978 29.506458 7.485093 18.258251 0.000016 -0.000006 -69.432165 111.046062 -56.678628 29.201393 0.000006 -0.000001 422.601945 111.801010 -420.828937 21.396950 -0.000004 0.000001 10.243999 9.890323 -46.455371 3.324748 2.789464 -2.472251 -0.000003 0.000000 0.000004 8.865982 0.000010 0.056807 -0.000000 0.000005 0.000000 -10.758357 0.000003 0.000000 8.220494 5.712105 -4.982174 -0.000000 42.048931 -0.000008 -2.305248 -0.000000 0.000000 0.000003 37.321884 -0.000007 11.946775 12.702885 6.551848 -0.000001 3.476196 0.000000 0.000003 -0.000000 -0.000001 0.000002 -0.000000 -13.613924 3.558569 -0.000004 0.000000 0.000000 -0.000000 -4.229024 -0.000001 -0.000003 -0.000001 10.758357 -0.000012 -0.000000 7.468704 -9.365942 -0.956156 0.000001 42.048920 -0.000005 -1.150215 -0.000001 0.000000 -0.000000 37.321873 -0.000000 4.572010 -13.446534 -3.868284 -0.000002 3.476204 0.000001 0.000001 0.000003 0.000001 -0.000004 0.000019 -13.613918 10.544694 0.000000 -0.000002 -0.000002 0.000008 -4.216876 0.000002 0.000004 -0.000001 
-3.932673 -18.485600 -88.777420 -86.444343 2.106823 -177.899654 -0.000001 -11.384867 2.506329 8.727195 -0.210308 -1.962320 0.000000 -9.451114 1.666486 -1.638908 -0.009647 -0.203280 0.000000 -9.560424 0.836432 -2.565922 -2.346808 -0.122735 0.000000 -9.596930 0.000005 -1.277849 -1.138919 0.949841 -0.000001 -12.338897 -1.233882 -9.369611 -1.721874 2.486197 0.000001 -7.011473 -0.613420 3.292036 -0.230741 0.390751 -0.000000 -6.931307 -1.222171 13.659642 0.035093 0.731242 0.000003 -9.728050 0.000001 0.000001 -0.000000 0.000000 -0.000001 -8.813477 -5.370059 -0.000006 14.545260 8.818531 -18.258242 -0.000039 0.000004 -36.870307 -53.203120 -100.982148 -29.201426 -0.000008 0.000006 157.217609 -62.347319 159.593544 -21.396944 -0.000002 0.000005 -3.539922 8.485341 22.745911 -3.324746 2.789452 -2.472257 -0.000004 0.000009 -0.000001 -8.865976 0.000001 0.056807 -0.000005 0.000007 -0.000002 -0.000001 -8.813477 -5.370058 -179.999978 29.300405 7.540532 18.258247 -0.000022 0.000001 -66.765625 111.202467 -58.654823 29.201405 -0.000000 -0.000000 426.104521 111.564023 -424.528004 21.396940 0.000001 -0.000007 9.919559 10.312203 -44.330554 3.324716 2.789453 -2.472252 -0.000002 0.000009 0.000002 8.865952 0.000000 0.056828 0.000001 0.000006 0.000000 -10.758358 -0.000016 -0.000003 8.321908 5.917883 -4.978895 -0.000000 42.048927 -0.000007 -2.289873 -0.000001 0.000000 -0.000005 37.321903 -0.000004 11.867041 12.770353 6.547350 -0.000000 3.476211 0.000004 0.000001 0.000003 0.000000 0.000001 -0.000001 -13.613926 3.554222 -0.000003 0.000000 0.000002 -0.000000 -4.229024 -0.000002 -0.000001 -0.000002 10.758360 0.000001 0.000002 7.503523 -9.123686 -0.949118 0.000003 42.048908 -0.000008 -1.124539 -0.000001 0.000000 -0.000000 37.321899 -0.000002 4.542141 -13.435263 -3.830735 -0.000000 3.476204 -0.000001 0.000001 -0.000002 0.000000 0.000003 0.000002 -13.613923 10.582315 -0.000006 -0.000001 -0.000002 -0.000008 -4.216874 -0.000001 0.000006 -0.000002 
-3.952246 -18.509245 -88.769440 -86.399953 2.362921 -177.938777 0.000000 -11.384845 2.506339 8.818006 -0.212029 -1.933479 0.000000 -9.451137 1.666501 -1.624686 -0.010229 -0.195401 0.000000 -9.560399 0.836430 -2.602118 -2.368081 -0.109675 0.000000 -9.596951 0.000007 -1.405156 -1.113268 0.975841 0.000000 -12.338899 -1.233890 -9.320088 -1.802857 2.457922 0.000000 -7.011441 -0.613416 3.316147 -0.083906 0.403633 -0.000002 -6.931376 -1.222185 13.686991 0.045646 0.750912 0.000002 -9.728073 0.000001 0.000000 -0.000001 0.000000 -0.000000 -8.813496 -5.370063 -0.000001 14.606044 8.809674 -18.258253 0.000000 0.000007 -35.775875 -52.986531 -100.146597 -29.201385 0.000001 0.000013 160.780700 -64.210014 162.573515 -21.396944 -0.000006 -0.000007 -2.266900 6.020492 20.678017 -3.324744 2.789451 -2.472229 -0.000002 0.000009 0.000003 -8.865950 0.000007 0.056851 0.000001 0.000000 0.000002 0.000000 -8.813530 -5.370062 -179.999964 29.326589 7.608926 18.258247 0.000015 0.000000 -64.198977 111.410726 -60.626590 29.201401 0.000006 0.000005 427.603119 110.054073 -426.313251 21.396948 -0.000002 0.000009 8.347061 9.747064 -40.913414 3.324734 2.789445 -2.472230 -0.000002 -0.000005 0.000005 8.865973 -0.000009 0.056817 0.000000 0.000000 -0.000001 -10.758360 0.000005 0.000007 8.419712 6.126526 -4.969937 0.000001 42.048923 -0.000008 -2.280331 -0.000000 0.000000 -0.000001 37.321888 -0.000007 11.778488 12.838149 6.525453 -0.000000 3.476212 -0.000000 0.000002 0.000002 0.000000 -0.000001 -0.000010 -13.613922 3.546464 -0.000001 -0.000002 -0.000001 0.000001 -4.229023 0.000002 -0.000003 -0.000000 10.758358 0.000010 0.000008 7.538358 -8.902354 -0.933801 0.000001 42.048923 -0.000011 -1.113673 0.000003 0.000000 0.000001 37.321857 -0.000007 4.523633 -13.392024 -3.816936 -0.000001 3.476204 0.000002 0.000000 -0.000001 -0.000000 0.000002 0.000024 -13.613922 10.580545 -0.000003 -0.000001 -0.000002 -0.000000 -4.216876 -0.000001 0.000001 0.000000 
-3.874881 -18.469570 -88.888954 -87.085288 2.672358 -177.964349 -0.000001 -11.384861 2.506333 9.337950 -0.028470 -3.010574 -0.000001 -9.451140 1.666489 -1.703796 0.253431 -0.366115 0.000000 -9.560421 0.836432 -4.356650 0.189529 0.477514 -0.000001 -9.596936 0.000004 -5.858781 1.042242 4.084068 -0.000000 -12.338925 -1.233891 -3.095954 -7.038391 -0.289723 0.000001 -7.011453 -0.613419 3.515101 0.040956 0.363339 -0.000003 -6.931309 -1.222174 12.907167 0.050893 0.643385 0.000004 -9.728058 0.000002 -0.000000 -0.000000 -0.000000 0.000001 -8.813473 -5.370062 -0.000001 7.276055 5.986067 -18.258242 -0.000021 0.000012 -29.176335 -52.439426 -99.850624 -29.201410 -0.000018 0.000020 156.132565 -66.711318 157.882787 -21.396954 0.000004 -0.000007 -0.965907 2.821715 18.906438 -3.324751 2.789443 -2.472255 -0.000000 0.000007 0.000003 -8.865965 -0.000001 0.056831 0.000000 -0.000006 0.000002 -0.000001 -8.813492 -5.370062 -179.999978 30.684386 10.602005 18.258251 0.000024 -0.000002 -46.067396 112.127288 -74.873702 29.201406 -0.000007 -0.000003 423.414136 108.098214 -422.233716 21.396946 -0.000021 0.000007 6.221012 8.363510 -36.848205 3.324733 2.789444 -2.472256 0.000000 -0.000005 0.000003 8.865967 -0.000005 0.056818 -0.000000 -0.000004 -0.000000 -10.758359 -0.000021 -0.000001 7.701353 6.449297 -5.028612 -0.000000 42.048943 -0.000007 -2.232037 0.000001 0.000000 0.000000 37.321896 -0.000008 12.270265 12.828939 7.258403 -0.000000 3.476212 -0.000001 0.000002 0.000001 0.000001 -0.000000 0.000005 -13.613921 3.249379 0.000002 -0.000001 -0.000001 -0.000001 -4.229023 -0.000002 0.000001 0.000001 10.758357 -0.000025 0.000000 6.706627 -8.546609 -0.980468 -0.000000 42.048923 -0.000004 -1.010530 -0.000002 0.000000 0.000001 37.321896 -0.000006 5.042191 -13.297788 -4.360414 -0.000000 3.476204 -0.000000 0.000003 -0.000002 -0.000001 0.000002 -0.000007 -13.613924 10.455072 0.000000 -0.000001 0.000001 -0.000006 -4.216873 0.000005 0.000005 -0.000001 
